# xmcd
#
# Track frame offsets: 
#        150
#        16087
#        35495
#        54692
#        74950
#        96567
#        116530
#        143417
#        167585
#
# Disc length: 2545 seconds
#
# Revision: 0
# Processed by: cddbd v1.5.2PL0 Copyright (c) Steve Scherf et al.
# Submitted via: ExactAudioCopy v0.95b4
#
DISCID=7c09ef09
DTITLE=Rockie Robbins - Rockie Robbins
DYEAR=1979
DGENRE=Soul
TTITLE0=I Can Hardly Wait
TTITLE1=If I Ever Lose You
TTITLE2=Funk Street
TTITLE3=When I Think Of You
TTITLE4=I Love You Only
TTITLE5=Don't Deny Me
TTITLE6=Be Ever Wonderful
TTITLE7=Sho' Is Bad
TTITLE8=Miss Dynamite
EXTD=
EXTT0=
EXTT1=
EXTT2=
EXTT3=
EXTT4=
EXTT5=
EXTT6=
EXTT7=
EXTT8=
PLAYORDER=
